<mxfile host="app.diagrams.net" modified="2022-12-09T07:33:02.187Z" agent="5.0 (Windows NT 10.0; Win64; x64) AppleWebKit/537.36 (KHTML, like Gecko) Chrome/107.0.0.0 Safari/537.36 Edg/107.0.1418.62" etag="_rVAQBRUY0EDakVNCDlC" version="20.6.0" type="github">
  <diagram id="tyFv51uV3bvCRRzFF4Hj" name="第 1 页">
    <mxGraphModel dx="1483" dy="876" grid="1" gridSize="10" guides="1" tooltips="1" connect="1" arrows="1" fold="1" page="1" pageScale="1" pageWidth="827" pageHeight="1169" math="0" shadow="0">
      <root>
        <mxCell id="0" />
        <mxCell id="1" parent="0" />
        <mxCell id="xRzShyQa_QmFno417cpo-8" value="Serverless基础设施（TDSQL-C Serverless、存储、网络、网关）" style="rounded=1;whiteSpace=wrap;html=1;fontSize=18;" vertex="1" parent="1">
          <mxGeometry x="220" y="1280" width="560" height="40" as="geometry" />
        </mxCell>
        <mxCell id="xRzShyQa_QmFno417cpo-9" value="BaaS（COS对象存储、CDB云数据库、AI接口、IOT平台……）" style="rounded=1;whiteSpace=wrap;html=1;fontSize=18;" vertex="1" parent="1">
          <mxGeometry x="220" y="1220" width="560" height="40" as="geometry" />
        </mxCell>
        <mxCell id="xRzShyQa_QmFno417cpo-10" value="开发工具&lt;br&gt;（无服务框架&lt;br&gt;VSCode插件&lt;br&gt;Web IDE）" style="rounded=1;whiteSpace=wrap;html=1;fontSize=18;" vertex="1" parent="1">
          <mxGeometry x="220" y="1050" width="120" height="150" as="geometry" />
        </mxCell>
        <mxCell id="xRzShyQa_QmFno417cpo-11" value="观测工具&lt;br&gt;（应用性能监控、微服务观测平台）" style="rounded=1;whiteSpace=wrap;html=1;fontSize=18;" vertex="1" parent="1">
          <mxGeometry x="660" y="1050" width="120" height="150" as="geometry" />
        </mxCell>
        <mxCell id="xRzShyQa_QmFno417cpo-12" value="基于函数的计算平台&lt;br&gt;基于容器的服务部署&lt;br&gt;应用与服务编排&lt;br&gt;事件管理平台" style="rounded=1;whiteSpace=wrap;html=1;fontSize=18;" vertex="1" parent="1">
          <mxGeometry x="360" y="1050" width="280" height="150" as="geometry" />
        </mxCell>
        <mxCell id="xRzShyQa_QmFno417cpo-13" value="应用生态（小程序、微服务、音视频转码、ETL数据处理）" style="rounded=1;whiteSpace=wrap;html=1;fontSize=18;" vertex="1" parent="1">
          <mxGeometry x="220" y="990" width="560" height="40" as="geometry" />
        </mxCell>
      </root>
    </mxGraphModel>
  </diagram>
</mxfile>
